<?xml version="1.0" encoding="UTF-8"?>
<svg version="1.1" xmlns="http://www.w3.org/2000/svg" width="374" height="243">
<path d="M0 0 C123.42 0 246.84 0 374 0 C374 80.19 374 160.38 374 243 C250.58 243 127.16 243 0 243 C0 162.81 0 82.62 0 0 Z " fill="#FEFEFE" transform="translate(0,0)"/>
<path d="M0 0 C12.54 0 25.08 0 38 0 C38 0.66 38 1.32 38 2 C35.69 2 33.38 2 31 2 C31 14.87 31 27.74 31 41 C33.31 41 35.62 41 38 41 C38 40.01 38 39.02 38 38 C39.32 38 40.64 38 42 38 C42 40.64 42 43.28 42 46 C43.65 46 45.3 46 47 46 C47 43.36 47 40.72 47 38 C48.32 38 49.64 38 51 38 C51 38.99 51 39.98 51 41 C52.65 41 54.3 41 56 41 C56 28.13 56 15.26 56 2 C53.69 2 51.38 2 49 2 C49 1.34 49 0.68 49 0 C61.87 0 74.74 0 88 0 C88 0.66 88 1.32 88 2 C85.69 2 83.38 2 81 2 C81 13.88 81 25.76 81 38 C82.32 38 83.64 38 85 38 C85.99 40.97 86.98 43.94 88 47 C88.66 44.03 89.32 41.06 90 38 C91.32 38 92.64 38 94 38 C93.39700836 45.23589973 91.8849413 51.99370876 90 59 C84.25 58.25 84.25 58.25 82 56 C81.67 65.24 81.34 74.48 81 84 C83.31 84 85.62 84 88 84 C88 84.99 88 85.98 88 87 C75.13 87 62.26 87 49 87 C49 86.34 49 85.68 49 85 C51.31 85 53.62 85 56 85 C56 71.47 56 57.94 56 44 C54.35 44 52.7 44 51 44 C51 48.95 51 53.9 51 59 C49.68 59 48.36 59 47 59 C47 56.03 47 53.06 47 50 C45.35 50 43.7 50 42 50 C42 52.97 42 55.94 42 59 C40.68 59 39.36 59 38 59 C38 54.05 38 49.1 38 44 C35.69 44 33.38 44 31 44 C31.12375 45.8871875 31.12375 45.8871875 31.25 47.8125 C31.26383347 51.72737208 31.26383347 51.72737208 29.125 53.9375 C27.75 54.625 26.375 55.3125 25 56 C25 56.99 25 57.98 25 59 C21.04 59 17.08 59 13 59 C13 55.04 13 51.08 13 47 C12.34 46.67 11.68 46.34 11 46 C11.33 45.34 11.66 44.68 12 44 C11.34 44 10.68 44 10 44 C9.87625 44.639375 9.7525 45.27875 9.625 45.9375 C9.41875 46.618125 9.2125 47.29875 9 48 C8.01 48.495 8.01 48.495 7 49 C7 33.49 7 17.98 7 2 C4.69 2 2.38 2 0 2 C0 1.34 0 0.68 0 0 Z " fill="#D8D8D9" transform="translate(210,80)"/>
<path d="M0 0 C24.42 0 48.84 0 74 0 C75.15033784 14.95439189 75.15033784 14.95439189 75.0625 22.3125 C75.05798828 23.06466797 75.05347656 23.81683594 75.04882812 24.59179688 C75.03734551 26.39456815 75.01943033 28.19729686 75 30 C74.34 30.33 73.68 30.66 73 31 C72.15488176 29.27656245 71.32436646 27.54595947 70.5 25.8125 C69.80390625 24.36810547 69.80390625 24.36810547 69.09375 22.89453125 C68.00407079 20.01077307 67.77722476 18.04645139 68 15 C67.34 15 66.68 15 66 15 C65.67386719 14.37351562 65.34773438 13.74703125 65.01171875 13.1015625 C64.57472656 12.28429687 64.13773437 11.46703125 63.6875 10.625 C63.25824219 9.81289062 62.82898438 9.00078125 62.38671875 8.1640625 C61.03221276 5.73165957 61.03221276 5.73165957 58 4 C55.9507906 3.54860541 55.9507906 3.54860541 53.8125 3.375 C52.554375 3.25125 51.29625 3.1275 50 3 C49.79069544 28.74781912 49.79069544 28.74781912 55.0390625 53.78125 C56 57 56 57 55 60 C53.68 60 52.36 60 51 60 C50.67 67.92 50.34 75.84 50 84 C53.63 84 57.26 84 61 84 C61 84.99 61 85.98 61 87 C45.49 87 29.98 87 14 87 C14 86.01 14 85.02 14 84 C17.63 84 21.26 84 25 84 C24.91286366 80.12393523 24.80594395 76.25012859 24.6875 72.375 C24.66494141 71.28058594 24.64238281 70.18617188 24.61914062 69.05859375 C24.37957071 61.1076742 24.37957071 61.1076742 21 54 C20.34 53.67 19.68 53.34 19 53 C19 54.98 19 56.96 19 59 C17.68 59 16.36 59 15 59 C15 52.07 15 45.14 15 38 C18.3 38 21.6 38 25 38 C25 26.12 25 14.24 25 2 C15.35420551 4.40122144 15.35420551 4.40122144 10 11 C7.31200753 16.21516488 4.96800603 21.181442 4 27 C3.34 27 2.68 27 2 27 C2 27.99 2 28.98 2 30 C1.34 30 0.68 30 0 30 C0 20.1 0 10.2 0 0 Z " fill="#D9D9D9" transform="translate(127,80)"/>
<path d="M0 0 C12.54 0 25.08 0 38 0 C38 0.66 38 1.32 38 2 C35.69 2 33.38 2 31 2 C31 14.87 31 27.74 31 41 C33.31 41 35.62 41 38 41 C38 40.01 38 39.02 38 38 C39.32 38 40.64 38 42 38 C42 40.64 42 43.28 42 46 C43.65 46 45.3 46 47 46 C47 43.36 47 40.72 47 38 C48.32 38 49.64 38 51 38 C51 44.93 51 51.86 51 59 C49.68 59 48.36 59 47 59 C47 56.03 47 53.06 47 50 C45.35 50 43.7 50 42 50 C42 52.97 42 55.94 42 59 C40.68 59 39.36 59 38 59 C38 54.05 38 49.1 38 44 C35.69 44 33.38 44 31 44 C31.12375 45.8871875 31.12375 45.8871875 31.25 47.8125 C31.26383347 51.72737208 31.26383347 51.72737208 29.125 53.9375 C27.75 54.625 26.375 55.3125 25 56 C25 56.99 25 57.98 25 59 C21.04 59 17.08 59 13 59 C13 55.04 13 51.08 13 47 C12.34 46.67 11.68 46.34 11 46 C11.33 45.34 11.66 44.68 12 44 C11.34 44 10.68 44 10 44 C9.87625 44.639375 9.7525 45.27875 9.625 45.9375 C9.41875 46.618125 9.2125 47.29875 9 48 C8.01 48.495 8.01 48.495 7 49 C7 33.49 7 17.98 7 2 C4.69 2 2.38 2 0 2 C0 1.34 0 0.68 0 0 Z " fill="#D9D9D9" transform="translate(210,80)"/>
<path d="M0 0 C0.66 0 1.32 0 2 0 C3.63356321 4.90068963 3.05529694 9.85738476 3 15 C6.96 15 10.92 15 15 15 C15.33 13.02 15.66 11.04 16 9 C16.66 9 17.32 9 18 9 C18.66 8.34 19.32 7.68 20 7 C21 8 21 8 21.11352539 11.14282227 C21.11336633 12.53402697 21.10767506 13.92523761 21.09765625 15.31640625 C21.0962413 16.04746078 21.09482635 16.77851532 21.09336853 17.53172302 C21.08775408 19.87535632 21.07519922 22.21889539 21.0625 24.5625 C21.05748686 26.14778508 21.05292363 27.73307166 21.04882812 29.31835938 C21.03777997 33.2122761 21.02050572 37.10612205 21 41 C23.31 41 25.62 41 28 41 C28 41.66 28 42.32 28 43 C15.13 43 2.26 43 -11 43 C-11 42.34 -11 41.68 -11 41 C-8.36 41 -5.72 41 -3 41 C-3.02356567 39.40345581 -3.02356567 39.40345581 -3.04760742 37.7746582 C-3.10203054 33.81444914 -3.13639493 29.85427296 -3.16479492 25.89379883 C-3.1798534 24.18182816 -3.20030455 22.46989589 -3.22631836 20.75805664 C-3.2628319 18.29303495 -3.27975562 15.82852465 -3.29296875 13.36328125 C-3.30845261 12.60163162 -3.32393646 11.83998199 -3.33988953 11.05525208 C-3.34130826 6.54491162 -2.88155582 3.54622711 0 0 Z " fill="#D8D8D8" transform="translate(220,124)"/>
<path d="M0 0 C1.39456452 0.00667256 2.78911118 0.01863093 4.18359375 0.03515625 C4.89451172 0.03966797 5.60542969 0.04417969 6.33789062 0.04882812 C8.09899388 0.06064761 9.86005411 0.07858362 11.62109375 0.09765625 C12.59781865 10.12652802 12.72959001 20.0316139 12.62109375 30.09765625 C11.96109375 30.42765625 11.30109375 30.75765625 10.62109375 31.09765625 C9.77597551 29.3742187 8.94546021 27.64361572 8.12109375 25.91015625 C7.65703125 24.94722656 7.19296875 23.98429687 6.71484375 22.9921875 C5.62516454 20.10842932 5.39831851 18.14410764 5.62109375 15.09765625 C4.96109375 15.09765625 4.30109375 15.09765625 3.62109375 15.09765625 C3.13189453 14.15792969 3.13189453 14.15792969 2.6328125 13.19921875 C2.19582031 12.38195312 1.75882813 11.5646875 1.30859375 10.72265625 C0.66470703 9.50449219 0.66470703 9.50449219 0.0078125 8.26171875 C-1.34669349 5.82931582 -1.34669349 5.82931582 -4.37890625 4.09765625 C-7.01890625 3.76765625 -9.65890625 3.43765625 -12.37890625 3.09765625 C-12.37890625 14.64765625 -12.37890625 26.19765625 -12.37890625 38.09765625 C-14.37890625 36.09765625 -14.37890625 36.09765625 -14.51416016 32.74951172 C-14.47181683 31.32093722 -14.41815172 29.89267039 -14.35546875 28.46484375 C-14.33044281 27.71300812 -14.30541687 26.96117249 -14.27963257 26.18655396 C-14.19735536 23.78146786 -14.10079764 21.37719368 -14.00390625 18.97265625 C-13.94567445 17.34378334 -13.888371 15.71487695 -13.83203125 14.0859375 C-13.69176547 10.08937543 -13.53868882 6.09348371 -13.37890625 2.09765625 C-12.42177734 2.00677734 -12.42177734 2.00677734 -11.4453125 1.9140625 C-10.20587891 1.78837891 -10.20587891 1.78837891 -8.94140625 1.66015625 C-8.11769531 1.57894531 -7.29398438 1.49773437 -6.4453125 1.4140625 C-3.29419157 0.93156572 -3.69694513 0.10684813 0 0 Z " fill="#DCDCDC" transform="translate(189.37890625,79.90234375)"/>
<path d="M0 0 C6.27 0 12.54 0 19 0 C19.33 0.99 19.66 1.98 20 3 C19.0925 3.391875 18.185 3.78375 17.25 4.1875 C10.35968024 8.03017833 7.74806849 14.88975588 5 22 C4.62430077 23.65763053 4.27646811 25.32296265 4 27 C3.34 27 2.68 27 2 27 C2 27.99 2 28.98 2 30 C1.34 30 0.68 30 0 30 C0 20.1 0 10.2 0 0 Z " fill="#D9D9D9" transform="translate(127,80)"/>
<path d="M0 0 C9 0 9 0 11.5 1.875 C14.26379031 5.79036961 14.66473767 9.28561046 14 14 C12.50251293 16.65683189 11.15347249 18.84652751 9 21 C6.03 21 3.06 21 0 21 C0 14.07 0 7.14 0 0 Z " fill="#0A0A0A" transform="translate(196,118)"/>
<path d="M0 0 C9 0 9 0 12 2 C12.2578125 5.08203125 12.2578125 5.08203125 12.125 8.8125 C11.99033597 13.07237216 11.97276468 16.85154965 13 21 C10.625 20.75 10.625 20.75 8 20 C6.8125 18 6.8125 18 6 16 C5.34 15.67 4.68 15.34 4 15 C4 16.98 4 18.96 4 21 C2.68 21 1.36 21 0 21 C0 14.07 0 7.14 0 0 Z " fill="#030303" transform="translate(142,118)"/>
<path d="M0 0 C1.32 0 2.64 0 4 0 C4.83732743 3.12394391 5.66917982 6.24931974 6.5 9.375 C6.73847656 10.26445312 6.97695312 11.15390625 7.22265625 12.0703125 C7.56103516 13.34648437 7.56103516 13.34648437 7.90625 14.6484375 C8.11572266 15.43395996 8.32519531 16.21948242 8.54101562 17.02880859 C9 19 9 19 9 21 C5.66666667 20.33333333 2.33333333 19.66666667 -1 19 C-1 19.66 -1 20.32 -1 21 C-2.65 21 -4.3 21 -6 21 C-5.38120598 18.24846929 -4.75523814 15.49891102 -4.125 12.75 C-3.95097656 11.97269531 -3.77695313 11.19539062 -3.59765625 10.39453125 C-3.42363281 9.64042969 -3.24960938 8.88632813 -3.0703125 8.109375 C-2.91320801 7.41811523 -2.75610352 6.72685547 -2.59423828 6.01464844 C-1.95653155 3.85262875 -1.06200166 1.98395915 0 0 Z " fill="#1E1E1E" transform="translate(174,118)"/>
<path d="M0 0 C1.32 0 2.64 0 4 0 C4 2.64 4 5.28 4 8 C5.65 8 7.3 8 9 8 C9 5.36 9 2.72 9 0 C10.32 0 11.64 0 13 0 C13 6.93 13 13.86 13 21 C11.68 21 10.36 21 9 21 C9 18.03 9 15.06 9 12 C7.35 12 5.7 12 4 12 C4 14.97 4 17.94 4 21 C2.68 21 1.36 21 0 21 C0 14.07 0 7.14 0 0 Z " fill="#265A9D" transform="translate(248,118)"/>
<path d="M0 0 C3.96 0 7.92 0 12 0 C12 1.65 12 3.3 12 5 C9.69 5 7.38 5 5 5 C5 5.99 5 6.98 5 8 C6.65 8 8.3 8 10 8 C10 8.99 10 9.98 10 11 C8.35 11 6.7 11 5 11 C5 12.98 5 14.96 5 17 C7.31 17 9.62 17 12 17 C12 18.32 12 19.64 12 21 C8.04 21 4.08 21 0 21 C0 14.07 0 7.14 0 0 Z " fill="#144995" transform="translate(317,118)"/>
<path d="M0 0 C3.96 0 7.92 0 12 0 C12 1.65 12 3.3 12 5 C9.36 5 6.72 5 4 5 C4 5.99 4 6.98 4 8 C5.98 8 7.96 8 10 8 C10 8.99 10 9.98 10 11 C8.02 11 6.04 11 4 11 C4 12.98 4 14.96 4 17 C6.64 17 9.28 17 12 17 C12 18.32 12 19.64 12 21 C8.04 21 4.08 21 0 21 C0 14.07 0 7.14 0 0 Z " fill="#060606" transform="translate(223,118)"/>
<path d="M0 0 C1.32 0 2.64 0 4 0 C4.99 2.97 5.98 5.94 7 9 C7.66 6.03 8.32 3.06 9 0 C10.32 0 11.64 0 13 0 C12.39700836 7.23589973 10.8849413 13.99370876 9 21 C7.35 20.67 5.7 20.34 4 20 C3.32749476 17.41806023 2.66182099 14.83467929 2 12.25 C1.71382813 11.15558594 1.71382813 11.15558594 1.421875 10.0390625 C0.53484036 6.55428354 0 3.61876278 0 0 Z " fill="#1B4D89" transform="translate(291,118)"/>
<path d="M0 0 C2 3.75 2 3.75 2 6 C1.34 6 0.68 6 0 6 C0 8.31 0 10.62 0 13 C0.66 13.33 1.32 13.66 2 14 C3.1875 15.9375 3.1875 15.9375 4 18 C3.67 18.66 3.34 19.32 3 20 C2.34 20 1.68 20 1 20 C0.67 20.99 0.34 21.98 0 23 C-0.99 23.33 -1.98 23.66 -3 24 C-3.33 23.67 -3.66 23.34 -4 23 C-5.34747084 22.76924918 -6.70377565 22.58846937 -8.0625 22.4375 C-9.361875 22.293125 -10.66125 22.14875 -12 22 C-12 21.67 -12 21.34 -12 21 C-8.04 21 -4.08 21 0 21 C0 19.68 0 18.36 0 17 C-2.31 17 -4.62 17 -7 17 C-7 15.02 -7 13.04 -7 11 C-5.35 11 -3.7 11 -2 11 C-2 10.01 -2 9.02 -2 8 C-3.65 8 -5.3 8 -7 8 C-7 7.01 -7 6.02 -7 5 C-4.69 5 -2.38 5 0 5 C0 3.35 0 1.7 0 0 Z " fill="#E8F6FA" transform="translate(329,118)"/>
<path d="M0 0 C3.63 0 7.26 0 11 0 C11 1.32 11 2.64 11 4 C9.68 4 8.36 4 7 4 C7 9.61 7 15.22 7 21 C5.68 21 4.36 21 3 21 C3 15.39 3 9.78 3 4 C2.01 4 1.02 4 0 4 C0 2.68 0 1.36 0 0 Z " fill="#232323" transform="translate(118,118)"/>
<path d="M0 0 C1.4370809 -0.05422947 2.87475462 -0.09289723 4.3125 -0.125 C5.11300781 -0.14820312 5.91351563 -0.17140625 6.73828125 -0.1953125 C9 0 9 0 12 2 C12.36328125 4.27734375 12.36328125 4.27734375 12.3125 6.9375 C12.30863281 7.81277344 12.30476562 8.68804687 12.30078125 9.58984375 C12 12 12 12 10 15 C10 13.68 10 12.36 10 11 C8.02 11 6.04 11 4 11 C3.875 4.25 3.875 4.25 5 2 C3.35 1.67 1.7 1.34 0 1 C0 0.67 0 0.34 0 0 Z " fill="#1C1C1C" transform="translate(142,118)"/>
<path d="M0 0 C2.51884651 2.51884651 2.8257588 4.43644242 3.6875 7.875 C3.95949219 8.92429688 4.23148437 9.97359375 4.51171875 11.0546875 C4.97540921 13.85166838 4.94575698 15.372192 4 18 C3.34 17.34 2.68 16.68 2 16 C1.67 25.24 1.34 34.48 1 44 C3.31 44 5.62 44 8 44 C7.67 44.99 7.34 45.98 7 47 C7 46.34 7 45.68 7 45 C4.69 45 2.38 45 0 45 C0 30.15 0 15.3 0 0 Z " fill="#EBEBEB" transform="translate(290,120)"/>
<path d="M0 0 C3.96 0 7.92 0 12 0 C12 1.65 12 3.3 12 5 C9.36 5 6.72 5 4 5 C4 5.66 4 6.32 4 7 C3.01 7.495 3.01 7.495 2 8 C1.53045739 11.04581269 1.53045739 11.04581269 1.375 14.5625 C1.30023438 15.76003906 1.22546875 16.95757812 1.1484375 18.19140625 C1.09945313 19.11824219 1.05046875 20.04507813 1 21 C0.67 21 0.34 21 0 21 C0 14.07 0 7.14 0 0 Z " fill="#3A669D" transform="translate(317,118)"/>
<path d="M0 0 C1.22804981 4.14466812 1.3642157 7.54313719 0.3125 11.75 C-1 14 -1 14 -3.5 14.875 C-6 15 -6 15 -8 14 C-8.33 14.66 -8.66 15.32 -9 16 C-9 14.02 -9 12.04 -9 10 C-7.02 10 -5.04 10 -3 10 C-3 9.01 -3 8.02 -3 7 C-4.98 7 -6.96 7 -9 7 C-9 6.01 -9 5.02 -9 4 C-6.36 4 -3.72 4 -1 4 C-0.67 2.68 -0.34 1.36 0 0 Z " fill="#CBCBCB" transform="translate(236,119)"/>
<path d="M0 0 C0.99 0 1.98 0 3 0 C3 2.31 3 4.62 3 7 C4.65 7 6.3 7 8 7 C8 4.69 8 2.38 8 0 C8.99 0 9.98 0 11 0 C11 4.95 11 9.9 11 15 C10.34 15 9.68 15 9 15 C8.67 13.02 8.34 11.04 8 9 C7.236875 9.226875 6.47375 9.45375 5.6875 9.6875 C3 10 3 10 1.1875 9 C-0.57886204 6.02507445 -0.19143369 3.38199514 0 0 Z " fill="#0F4790" transform="translate(249,119)"/>
<path d="M0 0 C0.33 0 0.66 0 1 0 C1 6.93 1 13.86 1 21 C1.99 21.33 2.98 21.66 4 22 C2.02 22.99 2.02 22.99 0 24 C-0.33 22.35 -0.66 20.7 -1 19 C-1.99 19.33 -2.98 19.66 -4 20 C-4.125 16.625 -4.125 16.625 -4 13 C-3.34 12.34 -2.68 11.68 -2 11 C-1.31822002 8.34280163 -1.31822002 8.34280163 -0.875 5.375 C-0.70742188 4.37210937 -0.53984375 3.36921875 -0.3671875 2.3359375 C-0.24601562 1.56507812 -0.12484375 0.79421875 0 0 Z " fill="#D6D8E1" transform="translate(273,119)"/>
<path d="M0 0 C0.99 0 1.98 0 3 0 C3 6.93 3 13.86 3 21 C2.01 21 1.02 21 0 21 C0 14.07 0 7.14 0 0 Z " fill="#13488A" transform="translate(275,118)"/>
<path d="M0 0 C0.66 0 1.32 0 2 0 C1.54315719 5.39074513 0.77161222 10.63477719 -0.3125 15.9375 C-0.53550781 17.03964844 -0.75851562 18.14179688 -0.98828125 19.27734375 C-2 22 -2 22 -3.85546875 23.37890625 C-6 24 -6 24 -10 24 C-9.34 22.68 -8.68 21.36 -8 20 C-6.68 20.33 -5.36 20.66 -4 21 C-3.896875 19.948125 -3.79375 18.89625 -3.6875 17.8125 C-2.94805734 11.77734301 -1.43040204 5.90153295 0 0 Z " fill="#D7EBF5" transform="translate(304,118)"/>
<path d="M0 0 C1.32 0 2.64 0 4 0 C4 6.93 4 13.86 4 21 C2.68 21 1.36 21 0 21 C0 18.03 0 15.06 0 12 C-1.65 12 -3.3 12 -5 12 C-2.8614515 9.8614515 -1.86724686 9.57344937 1 9 C1 11.31 1 13.62 1 16 C1.66 16 2.32 16 3 16 C3 11.05 3 6.1 3 1 C2.01 0.67 1.02 0.34 0 0 Z " fill="#355F92" transform="translate(257,118)"/>
<path d="M0 0 C1.65 0 3.3 0 5 0 C5 2.97 5 5.94 5 9 C6.32 9 7.64 9 9 9 C9 9.66 9 10.32 9 11 C5.96936513 10.41070989 2.9982175 9.74955438 0 9 C0 6.03 0 3.06 0 0 Z " fill="#E2F8FD" transform="translate(252,130)"/>
<path d="M0 0 C1.98 0 3.96 0 6 0 C6.99 3.3 7.98 6.6 9 10 C7.35 9.67 5.7 9.34 4 9 C2.8125 7 2.8125 7 2 5 C1.34 4.67 0.68 4.34 0 4 C0 2.68 0 1.36 0 0 Z " fill="#0D0D0D" transform="translate(146,129)"/>
<path d="M0 0 C4 1 4 1 5 2 C5.14115161 4.67058851 5.04247107 7.32432238 5 10 C3.35 10.66 1.7 11.32 0 12 C0 8.04 0 4.08 0 0 Z " fill="#DEDEDE" transform="translate(200,123)"/>
<path d="M0 0 C0.66 0 1.32 0 2 0 C3.09506492 3.28519475 3.09960608 5.73663415 3.0625 9.1875 C3.05347656 10.27417969 3.04445312 11.36085937 3.03515625 12.48046875 C3.02355469 13.31191406 3.01195312 14.14335937 3 15 C2.34 14.01 1.68 13.02 1 12 C0.01 11.67 -0.98 11.34 -2 11 C-2.92817192 7.37169157 -3.26901295 5.58926645 -1.6875 2.125 C-0.8521875 1.073125 -0.8521875 1.073125 0 0 Z " fill="#CFCFCF" transform="translate(220,124)"/>
<path d="M0 0 C0.99 0.33 1.98 0.66 3 1 C3 6.28 3 11.56 3 17 C2.01 17 1.02 17 0 17 C0 11.39 0 5.78 0 0 Z " fill="#0A0A0A" transform="translate(122,122)"/>
<path d="M0 0 C3.96 0 7.92 0 12 0 C12 1.65 12 3.3 12 5 C7.04230204 5.29162929 3.97193147 5.12940055 0 2 C0 1.34 0 0.68 0 0 Z " fill="#1C1C1C" transform="translate(223,118)"/>
<path d="M0 0 C1.32 0 2.64 0 4 0 C4.66 3.3 5.32 6.6 6 10 C5.34 10 4.68 10 4 10 C3.67 10.99 3.34 11.98 3 13 C2.67 13 2.34 13 2 13 C1.66127487 11.58461283 1.32925376 10.16762037 1 8.75 C0.814375 7.96109375 0.62875 7.1721875 0.4375 6.359375 C0 4 0 4 0 0 Z " fill="#27518B" transform="translate(291,118)"/>
<path d="M0 0 C-0.33 1.32 -0.66 2.64 -1 4 C-2.65 4 -4.3 4 -6 4 C-6 4.99 -6 5.98 -6 7 C-7.65 7 -9.3 7 -11 7 C-8.87296567 0.78251503 -6.45381515 -0.28683623 0 0 Z " fill="#060606" transform="translate(179,132)"/>
<path d="M0 0 C2.97759558 2.97759558 2.9560567 5.20902056 3.1875 9.375 C3.00196601 12.9619905 2.29918276 15.67084417 1 19 C0.67 19 0.34 19 0 19 C0 12.73 0 6.46 0 0 Z " fill="#C2D2E8" transform="translate(278,118)"/>
<path d="M0 0 C1.32 0 2.64 0 4 0 C3.88490339 1.41750563 3.75746342 2.83401169 3.625 4.25 C3.55539062 5.03890625 3.48578125 5.8278125 3.4140625 6.640625 C2.98492887 9.085877 2.21399362 10.84836903 1 13 C1 11.68 1 10.36 1 9 C0.34 9 -0.32 9 -1 9 C-0.67 6.03 -0.34 3.06 0 0 Z " fill="#1F528A" transform="translate(300,118)"/>
<path d="M0 0 C2.51884651 2.51884651 2.8257588 4.43644242 3.6875 7.875 C3.95949219 8.92429688 4.23148437 9.97359375 4.51171875 11.0546875 C4.97540921 13.85166838 4.94575698 15.372192 4 18 C1.20091258 14.01524016 0.55665618 11.02179241 0.3125 6.1875 C0.24675781 5.02605469 0.18101562 3.86460938 0.11328125 2.66796875 C0.07589844 1.78753906 0.03851563 0.90710938 0 0 Z " fill="#D3EAF7" transform="translate(290,120)"/>
<path d="M0 0 C2.97 0 5.94 0 9 0 C7 4 7 4 5 4.8125 C3 5 3 5 1 4 C0.67 4.66 0.34 5.32 0 6 C0 4.02 0 2.04 0 0 Z " fill="#BBBBBB" transform="translate(227,129)"/>
<path d="M0 0 C1.98 0 3.96 0 6 0 C5.67 1.65 5.34 3.3 5 5 C3.35 5.33 1.7 5.66 0 6 C0 4.02 0 2.04 0 0 Z " fill="#DE8787" transform="translate(0,0)"/>
<path d="M0 0 C3.63 0 7.26 0 11 0 C11 0.99 11 1.98 11 3 C7.37 3 3.74 3 0 3 C0 2.01 0 1.02 0 0 Z " fill="#E0E0E0" transform="translate(177,164)"/>
<path d="M0 0 C0.66 0 1.32 0 2 0 C3.14806378 9.41002278 3.14806378 9.41002278 3 14 C2.01 14.33 1.02 14.66 0 15 C0 10.05 0 5.1 0 0 Z " fill="#EBFBFC" transform="translate(261,124)"/>
<path d="M0 0 C2 3.75 2 3.75 2 6 C1.34 6 0.68 6 0 6 C-0.33 7.65 -0.66 9.3 -1 11 C-1.33 10.01 -1.66 9.02 -2 8 C-3.65 8 -5.3 8 -7 8 C-7 7.01 -7 6.02 -7 5 C-4.69 5 -2.38 5 0 5 C0 3.35 0 1.7 0 0 Z " fill="#CFE7F6" transform="translate(329,118)"/>
<path d="M0 0 C0.33 0 0.66 0 1 0 C1 6.93 1 13.86 1 21 C1.99 21.33 2.98 21.66 4 22 C2.02 22.99 2.02 22.99 0 24 C-1.01044795 20.96865616 -1.05032949 19.25604057 -0.87890625 16.11328125 C-0.83056641 15.17548828 -0.78222656 14.23769531 -0.73242188 13.27148438 C-0.67634766 12.29501953 -0.62027344 11.31855469 -0.5625 10.3125 C-0.51029297 9.32443359 -0.45808594 8.33636719 -0.40429688 7.31835938 C-0.27464694 4.87858324 -0.13968258 2.43921895 0 0 Z " fill="#CCDAED" transform="translate(273,119)"/>
<path d="M0 0 C2.5 1.1875 2.5 1.1875 5 3 C5.3125 5.6875 5.3125 5.6875 5 8 C3.35 8 1.7 8 0 8 C0 5.36 0 2.72 0 0 Z " fill="#CBE2F6" transform="translate(252,118)"/>
<path d="M0 0 C1.32 0 2.64 0 4 0 C4 2.31 4 4.62 4 7 C2.68 7 1.36 7 0 7 C0 4.69 0 2.38 0 0 Z " fill="#DFDFDF" transform="translate(146,122)"/>
<path d="M0 0 C0.33 0 0.66 0 1 0 C0.88541307 1.43836751 0.75790884 2.87570966 0.625 4.3125 C0.55539062 5.11300781 0.48578125 5.91351563 0.4140625 6.73828125 C0 9 0 9 -2 12 C-2.66 8.37 -3.32 4.74 -4 1 C-3.34 1 -2.68 1 -2 1 C-2 1.99 -2 2.98 -2 4 C-1.34 4 -0.68 4 0 4 C0 2.68 0 1.36 0 0 Z " fill="#CDEBF9" transform="translate(299,118)"/>
<path d="M0 0 C1.65 0 3.3 0 5 0 C5 0.66 5 1.32 5 2 C5.66 2 6.32 2 7 2 C6.67 2.66 6.34 3.32 6 4 C5.67 4 5.34 4 5 4 C5 6.64 5 9.28 5 12 C4.01 12 3.02 12 2 12 C2.33 8.7 2.66 5.4 3 2 C2.01 1.67 1.02 1.34 0 1 C0 0.67 0 0.34 0 0 Z " fill="#BBBBBB" transform="translate(151,118)"/>
<path d="M0 0 C1.65 0 3.3 0 5 0 C5 0.99 5 1.98 5 3 C3.35 3 1.7 3 0 3 C0 4.65 0 6.3 0 8 C-3 4.25 -3 4.25 -3 2 C-2.01 2 -1.02 2 0 2 C0 1.34 0 0.68 0 0 Z " fill="#114687" transform="translate(322,126)"/>
<path d="M0 0 C0.99 0 1.98 0 3 0 C3.33 1.65 3.66 3.3 4 5 C-1 4 -1 4 -6 3 C-6 2.67 -6 2.34 -6 2 C-4.02 2 -2.04 2 0 2 C0 1.34 0 0.68 0 0 Z " fill="#171717" transform="translate(179,134)"/>
<path d="M0 0 C1.9375 0.8125 1.9375 0.8125 4 2 C5 5 5 5 5 8 C4.01 8 3.02 8 2 8 C0.74335022 5.09399739 0 3.20395416 0 0 Z " fill="#D0D0D0" transform="translate(153,131)"/>
<path d="M0 0 C0.33 0 0.66 0 1 0 C1 1.65 1 3.3 1 5 C-0.98 5.99 -0.98 5.99 -3 7 C-3.33 6.67 -3.66 6.34 -4 6 C-5.34747084 5.76924918 -6.70377565 5.58846937 -8.0625 5.4375 C-9.361875 5.293125 -10.66125 5.14875 -12 5 C-12 4.67 -12 4.34 -12 4 C-8.04 4 -4.08 4 0 4 C0 2.68 0 1.36 0 0 Z " fill="#BFD8EF" transform="translate(329,135)"/>
<path d="M0 0 C0.66 0.66 1.32 1.32 2 2 C1.625 5.625 1.625 5.625 1 9 C0.01 8.67 -0.98 8.34 -2 8 C-2.33 7.01 -2.66 6.02 -3 5 C-2.34 5 -1.68 5 -1 5 C-0.67 3.35 -0.34 1.7 0 0 Z " fill="#0F4EAD" transform="translate(298,127)"/>
<path d="M0 0 C2.86724686 0.57344937 3.8614515 0.8614515 6 3 C5.01 3.33 4.02 3.66 3 4 C2.34 4.66 1.68 5.32 1 6 C0.01 5.01 -0.98 4.02 -2 3 C-1.34 3 -0.68 3 0 3 C0 2.01 0 1.02 0 0 Z " fill="#111111" transform="translate(202,118)"/>
<path d="M0 0 C0.66 0 1.32 0 2 0 C1.773125 0.7425 1.54625 1.485 1.3125 2.25 C0.70523302 5.05914993 0.70523302 5.05914993 2.4375 7.3125 C2.953125 7.869375 3.46875 8.42625 4 9 C2.68 9 1.36 9 0 9 C-1.125 2.25 -1.125 2.25 0 0 Z " fill="#0D478F" transform="translate(295,128)"/>
<path d="M0 0 C0.99 0 1.98 0 3 0 C3 0.66 3 1.32 3 2 C5.31 2 7.62 2 10 2 C10 2.33 10 2.66 10 3 C7.36 3 4.72 3 2 3 C2 3.66 2 4.32 2 5 C1.34 5 0.68 5 0 5 C0 3.35 0 1.7 0 0 Z " fill="#275AA9" transform="translate(319,120)"/>
<path d="M0 0 C0.99 0 1.98 0 3 0 C3 2.31 3 4.62 3 7 C2.01 7 1.02 7 0 7 C0 4.69 0 2.38 0 0 Z " fill="#1A4D86" transform="translate(257,119)"/>
<path d="M0 0 C0.66 0.33 1.32 0.66 2 1 C2 1.99 2 2.98 2 4 C0.68 4 -0.64 4 -2 4 C-2 4.99 -2 5.98 -2 7 C-2.99 6.67 -3.98 6.34 -5 6 C-4.34 5.01 -3.68 4.02 -3 3 C-2.34 3 -1.68 3 -1 3 C-0.67 2.01 -0.34 1.02 0 0 Z " fill="#EEFAFD" transform="translate(259,114)"/>
<path d="M0 0 C0.33 0 0.66 0 1 0 C1.33 2.31 1.66 4.62 2 7 C1.34 7 0.68 7 0 7 C-0.33 7.99 -0.66 8.98 -1 10 C-2.54578627 6.90842747 -1.60277633 4.31526981 -1 1 C-0.67 0.67 -0.34 0.34 0 0 Z " fill="#31609D" transform="translate(295,121)"/>
</svg>
